<svg xmlns="http://www.w3.org/2000/svg"  viewBox="0 0 48 48" width="480px" height="480px"><path fill="#373837" d="M38.2,43.8H11c-3.8,0-6.9-3.1-6.9-6.9v-23c0-5.5,4.5-10,10-10h18.3l2.6,0.2c4.8,0,8.5,2.3,8.4,8.6l0.3,1.1 v24.6C43.6,41.4,41.2,43.8,38.2,43.8z"/><path fill="#16b7b8" d="M24,19.9c-2.3,0-4.1,1.8-4.1,4.1s1.8,4.1,4.1,4.1s4.1-1.8,4.1-4.1S26.3,19.9,24,19.9z M24,26 c-1,0-2-0.8-2-1.8s0.8-2,1.8-2s1.8,0.9,1.8,1.9S25,26,24,26z"/><path fill="#010101" d="M44.4,35.6c0-0.3,0-0.5-0.1-0.6c0.1-1.6-0.1-3.1-0.3-4.6c-0.1-0.8-0.2-1.5-0.2-2.2c-0.2-3.6-0.2-6.9,0-10	l0-0.5c0.1-1,0.2-2,0.1-3.1c0-0.4-0.1-0.8-0.2-1.2c-0.1-0.3-0.1-0.7-0.2-1.1c0-0.5-0.1-0.9-0.1-1.4c0-1-0.1-2-0.4-3	c0-0.1-0.1-0.2-0.2-0.4L43,7.5c-0.7-1.7-2.7-2.9-5.2-3.3c-0.7-0.1-1.5-0.2-2.2-0.2c-0.6,0-1.1-0.1-1.7-0.2c-3-0.4-6.2-0.4-9.2-0.4	l-1,0c-3.6,0-7.1,0.1-10.5,0.4c-0.3,0-0.6,0-0.9,0.1c0,0,0,0,0,0c0,0-0.1,0-0.1,0c-0.9,0-1.7,0.4-2.5,0.7c-3.2,1.3-5.6,4-6.2,6.9	c-0.2,1-0.2,2-0.1,3c0,0.4,0,0.7,0,1.1c0,3.4,0,6.9,0.1,10.3c0,1.7,0,3.4,0.1,5.1l0,4.2c0,2.5,0,6.2,3.3,7.8	c2.5,1.2,5.1,1.6,7.7,1.6c1.4,0,2.8-0.1,4.2-0.2l1.4-0.1C24,44,28,44,31.8,44.1c1.5,0,3.1,0,4.6,0c3,0,5.3-0.8,6.6-2.2	C44.9,39.9,44.6,37.1,44.4,35.6z M42.3,41.2c-1.1,1.3-3.1,1.9-5.8,1.9c-1.5,0-3.1,0-4.6,0C28,43,24,43,20.1,43.2l-1.4,0.1	c-4,0.3-7.8,0.5-11.3-1.3c-2.5-1.3-2.8-4-2.8-6.9l0-4.2c0-1.7,0-3.4-0.1-5.1c0-3.4-0.1-6.9-0.1-10.3c0-0.4,0-0.7,0-1.1	c0-0.9-0.1-1.9,0.1-2.7C5,9,7.2,6.6,10.1,5.5c0.7-0.3,1.4-0.5,2.1-0.6c0,0,0,0,0,0c0,0,0,0,0.1,0c0.4,0,0.7,0,1.1-0.1	c3.3-0.3,6.8-0.4,10.3-0.4l1,0c3,0,6.1,0,9.1,0.4C34.3,4.9,34.9,5,35.5,5c0.7,0.1,1.5,0.1,2.2,0.2c0.8,0.1,3.5,0.7,4.4,2.7l0.1,0.2	c0,0.1,0.1,0.1,0.1,0.2c0.3,0.9,0.3,1.8,0.4,2.7c0,0.5,0,1,0.1,1.4c0,0.4,0.1,0.7,0.2,1.1c0.1,0.4,0.1,0.7,0.2,1.1	c0.1,0.9,0,1.9-0.1,2.9l0,0.5c-0.2,3.2-0.2,6.5,0,10.1c0,0.7,0.1,1.5,0.2,2.3c0.2,1.5,0.3,2.9,0.3,4.5c0,0,0,0,0,0	c0,0.2,0,0.4,0.1,0.7C43.6,37.1,43.8,39.5,42.3,41.2z"/><path fill="#cbdb2d" d="M24,13.6c-5.7,0-10.4,4.6-10.4,10.4c0,5.7,4.6,10.4,10.4,10.4S34.4,29.7,34.4,24C34.4,18.3,29.7,13.6,24,13.6 z M24,31.2c-4,0-7.2-3.2-7.2-7.2c0-4,3.2-7.2,7.2-7.2s7.2,3.2,7.2,7.2C31.2,28,28,31.2,24,31.2z"/><path fill="#010101" d="M28.2,22.8c-0.1-0.4-0.4-0.7-0.7-1c-0.4-0.4-0.8-0.9-1.2-1.3c-0.4-0.4-0.9-0.8-1.8-0.8c-0.2,0-0.5,0-0.7,0	c-0.3,0-0.6,0-0.9,0.1c-0.1,0-0.2,0.1-0.3,0.1c-0.2,0-0.4,0.1-0.5,0.2c-1.9,0.9-3.2,3-2.8,5c0.1,0.8,0.4,1.4,0.9,1.9	c0.4,0.5,1,0.8,1.5,1.1c0.4,0.2,1,0.5,1.6,0.6c0.2,0,0.5,0.1,0.7,0.1c0.5,0,1.1-0.1,1.6-0.3c0.8-0.3,1.4-0.6,1.8-1.1	c0.8-0.9,0.9-2.1,1-3C28.4,23.9,28.4,23.3,28.2,22.8z M24,22.7c0.1,0,0.1,0,0.1,0c0.2,0,0.6,0.4,0.7,0.5c0.1,0.1,0.1,0.2,0.1,0.4	c0,0.3,0,0.7-0.1,1.1c-0.2,0.6-0.3,0.9-0.5,0.9c-0.2,0-0.3,0-0.6-0.1l-0.1,0c-0.3-0.1-0.6-0.2-0.7-0.4c-0.2-0.4-0.4-1-0.4-1.5	c0-0.3,0-0.5,0.2-0.7c0.2-0.2,0.6-0.4,0.9-0.4C23.7,22.7,23.9,22.7,24,22.7z M27.3,24.2c-0.1,1-0.2,1.8-0.7,2.4	c-0.3,0.4-0.8,0.6-1.4,0.8c-0.7,0.2-1.3,0.3-1.9,0.2c-0.5-0.1-0.9-0.3-1.3-0.5c-0.4-0.2-0.9-0.5-1.2-0.9c-0.3-0.4-0.5-0.9-0.6-1.4	c-0.3-1.6,0.7-3.3,2.3-4c0.1,0,0.2-0.1,0.4-0.1c0.1,0,0.2-0.1,0.3-0.1c0.2,0,0.5,0,0.7,0c0.1,0,0.2,0,0.4,0c0.1,0.4,0.1,0.6-0.3,0.9	c0,0,0,0,0,0.1c-0.8-0.1-1.6,0.1-2.1,0.7c-0.3,0.3-0.4,0.8-0.3,1.3c0,0.7,0.3,1.4,0.5,1.9c0.3,0.6,0.9,0.8,1.3,0.9l0.1,0	c0.3,0.1,0.5,0.1,0.8,0.1c0.1,0,0.2,0,0.2,0c1-0.1,1.2-1,1.4-1.7c0.1-0.4,0.1-0.8,0.2-1.2c0-0.4-0.1-0.8-0.3-1.1	c-0.1-0.2-0.4-0.4-0.8-0.7c0.3-0.3,0.4-0.7,0.4-1.1c0.1,0.1,0.2,0.2,0.3,0.3c0.4,0.4,0.8,0.8,1.2,1.2c0.2,0.2,0.4,0.4,0.5,0.7	C27.4,23.4,27.4,23.8,27.3,24.2z"/><path fill="#ed488b" d="M24,6.5C14.3,6.5,6.5,14.3,6.5,24c0,9.7,8,17.3,17.6,17.3s17-7.6,17-17.3c0-7.9-4.8-14-12-16.1 C27.5,7.4,25.7,6.5,24,6.5z M24,37.9c-7.6,0-13.9-6.2-13.9-13.9S16.4,10.1,24,10.1c1.2,0,2.8,0.8,3.9,1.1c2.3,0.6,4.6,1.3,6.3,2.8 c2.5,2.3,3.7,6.1,3.7,10C37.9,31.6,31.6,37.9,24,37.9z"/><path fill="#010101" d="M34.4,21.7c-0.6-2.3-1.7-4.3-3.2-5.8c-2.1-2.2-4.8-3.1-7.9-2.7c-0.1,0-0.1,0-0.1,0c-0.9,0.2-1.7,0.4-2.7,0.7	c-2.2,0.7-4,2.2-5.4,4.3c-1.1,1.7-1.8,3.6-1.8,5.5c0,1.8,0.4,3.6,1.3,5.4c0.9,1.8,2,3.1,3.3,4c1.3,0.9,3,1.4,5.2,1.7	c0.5,0.1,1.1,0.1,1.6,0.1c0.7,0,1.4-0.1,2.1-0.3c1.6-0.4,2.9-1.5,4-2.5c1.4-1.3,2.9-2.8,3.6-4.8C35.1,25.7,35,23.8,34.4,21.7z M33.6,26.9c-0.6,1.8-2,3.2-3.3,4.4c-1.1,1-2.3,1.9-3.6,2.3c-1.2,0.3-2.4,0.2-3.4,0.1c-2.1-0.2-3.6-0.7-4.8-1.5	c-1.2-0.8-2.2-2-2.9-3.6c-0.8-1.7-1.2-3.4-1.2-4.9c0-1.7,0.6-3.4,1.6-4.9c1.2-1.9,2.9-3.2,4.9-3.9c1-0.4,1.9-0.5,2.8-0.7	c0.2,0,0.4,0,0.6,0c0.1,0.1,0.2,0.1,0.3,0.2c0.2,0.2,0.4,0.3,0.4,0.4c0.1,0.2,0.1,0.5,0,0.8c-0.1,0.3-0.3,0.6-0.8,0.8	c-0.1,0-0.2,0-0.2,0c-3.3,0.1-6.2,2-7.5,4.7c-0.7,1.5-0.8,3.5-0.4,5.3c0.4,1.7,1.6,3.2,3.2,4.2c1.2,0.8,2.4,1.1,3.8,1.1	c0.7,0,1.5-0.1,2.3-0.3c1.1-0.3,2-0.6,2.7-1c1.8-1,3.2-2.7,3.7-4.7c0.4-1.3,0.2-2.6-0.4-4c-0.5-1-1.1-1.9-1.8-2.8l-0.1-0.1	c-0.3-0.4-0.5-0.7-0.9-1c-0.8-0.7-1.9-1.1-3-1.3c0.1-0.2,0.2-0.3,0.3-0.5c0.2-0.5,0.2-1.1,0-1.5c0-0.1-0.1-0.1-0.1-0.2	c1.8,0.2,3.3,1,4.7,2.4c1.4,1.4,2.4,3.3,2.9,5.4C34,23.9,34,25.5,33.6,26.9z M24,17.4c0,0,0.1,0,0.1,0c0.1,0,0.1,0,0.2,0	c0,0,0,0,0.1,0c0,0,0,0,0,0c0,0,0,0,0,0c1.3,0,2.7,0.4,3.7,1.1c0.3,0.2,0.5,0.5,0.7,0.8l0.1,0.1c0.6,0.8,1.3,1.7,1.7,2.6	c0.6,1.2,0.7,2.3,0.4,3.3c-0.5,1.7-1.7,3.2-3.3,4.1c-0.7,0.4-1.4,0.7-2.5,0.9c-2,0.5-3.7,0.3-5.3-0.7c-1.4-0.9-2.4-2.2-2.8-3.6	c-0.4-1.6-0.3-3.3,0.3-4.6c1.1-2.3,3.6-3.9,6.4-4.1C23.9,17.4,23.9,17.4,24,17.4z"/><path fill="#010101" d="M41.1,18.9c-0.7-2.8-2.1-5.4-4.1-7.5c-1.5-1.5-3.2-2.6-4.9-3.3c-0.9-0.3-1.8-0.5-2.8-0.8	c-0.3-0.1-0.6-0.1-0.9-0.2C28,7.1,27.6,7,27.2,6.8c-0.7-0.3-1.5-0.6-2.3-0.6c-0.2,0-0.4,0-0.6,0c-0.2,0-0.4,0-0.5,0	c-1-0.1-2.4,0.1-3.4,0.2l-0.3,0.1C19,6.8,17.8,7,16.7,7.4C11.2,9.8,7.2,15.5,6.5,22c-0.6,5.5,1.1,10.9,4.6,14.4	c1.4,1.4,3,2.5,4.9,3.4c2.7,1.3,5.6,1.9,8.6,1.9c1.3,0,2.6-0.1,3.8-0.4c2.3-0.5,4.2-1.3,5.8-2.4c1.8-1.3,3.3-3.1,4.6-5.5	C41.4,28.8,42.2,23.5,41.1,18.9z M24.4,11.2c0.5,0,1,0.1,1.5,0.3c0.2,0.1,0.4,0.1,0.6,0.2c0.6,0.2,1.3,0.3,1.9,0.4l0.3,0.1	c1.5,0.3,2.9,0.6,4,1.4c1.4,0.9,2.5,2.3,3.4,4.5c1.1,2.7,1.6,5.3,1.2,7.7c-0.5,3.2-2.3,5.7-3.8,7.3c-1.4,1.5-3.8,3.4-6.8,4.1	c-2.3,0.5-4.8,0.3-7.3-0.7c-2.8-1-5-2.6-6.6-4.7c-3-4-3.2-9.9-0.4-14.1c1-1.4,2.3-2.7,4-3.9c2-1.3,3.4-2.2,6.8-2.5H24.4z M38,33	c-1.2,2.3-2.7,4-4.3,5.2c-1.5,1.1-3.3,1.8-5.5,2.3c-4,0.8-8.1,0.3-11.8-1.5c-1.8-0.9-3.3-1.9-4.6-3.2c-3.3-3.4-4.9-8.5-4.4-13.6	c0.7-6.1,4.5-11.5,9.7-13.7c1-0.4,2-0.6,3.2-0.8l0.3-0.1c0.7-0.1,1.8-0.3,2.6-0.3c0.2,0,0.4,0,0.6,0c0,0,0,0,0,0c0,0,0,0,0,0	c0.1,0,0.3,0,0.5,0c0,0,0,0,0,0.1c0.3,0.4,0.5,0.8,0.5,1.2c0.1,0.4,0,0.7-0.2,1.1c-0.1,0.2-0.2,0.4-0.5,0.6h-0.9c0,0,0,0,0,0	c-3.9,0.4-5.4,1.4-7.3,2.7c-1.8,1.3-3.2,2.7-4.3,4.2c-3,4.5-2.8,10.9,0.4,15.2c1.7,2.2,4.1,4,7.1,5.1c1.8,0.7,3.6,1,5.3,1	c0.9,0,1.8-0.1,2.6-0.3c2.6-0.6,5.2-2.1,7.3-4.4c1.6-1.7,3.5-4.4,4-7.8c0.4-2.5-0.1-5.4-1.3-8.2c-1-2.3-2.2-3.9-3.7-4.9	c-1.3-0.8-2.8-1.2-4.3-1.5l-0.3-0.1c-0.6-0.1-1.2-0.3-1.8-0.4c-0.2-0.1-0.4-0.1-0.5-0.2c-0.3-0.1-0.6-0.2-0.9-0.2	c0.1-0.1,0.1-0.2,0.2-0.3c0.3-0.6,0.3-1.1,0.2-1.7c-0.1-0.3-0.2-0.7-0.4-1c0.4,0.1,0.9,0.3,1.4,0.4c0.4,0.2,0.9,0.3,1.3,0.5	c0.3,0.1,0.6,0.1,0.9,0.2c0.9,0.2,1.8,0.4,2.7,0.7c1.6,0.6,3.2,1.6,4.5,3c1.9,1.9,3.2,4.4,3.9,7C41.2,23.5,40.4,28.6,38,33z"/></svg>